<svg width="496" height="118" viewBox="0 0 496 118" fill="none" xmlns="http://www.w3.org/2000/svg">
<path d="M13.2344 63.8125V50.4531H38.7031C45.1094 50.4531 50.1354 48.9688 53.7812 46C57.4792 43.0312 59.3281 38.8385 59.3281 33.4219C59.3281 27.4844 57.6094 23.1875 54.1719 20.5312C50.7344 17.875 45.474 16.5469 38.3906 16.5469H18V116H0.265625V2.25H38.3906C50.474 2.25 59.9271 4.69792 66.75 9.59375C73.625 14.4896 77.0625 22.224 77.0625 32.7969C77.0625 37.4844 75.8906 41.7552 73.5469 45.6094C71.2552 49.4635 67.9219 52.6146 63.5469 55.0625C59.1719 57.4583 53.9115 58.9167 47.7656 59.4375L41.9844 63.8125H13.2344ZM7.0625 116L15.9688 101.781H41.2812C48.0521 101.781 53.2083 100.062 56.75 96.625C60.3438 93.1875 62.1406 88.6562 62.1406 83.0312C62.1406 79.0729 61.4375 75.6615 60.0312 72.7969C58.6771 69.9323 56.5156 67.7188 53.5469 66.1562C50.6302 64.5938 46.776 63.8125 41.9844 63.8125H20.1875V50.4531H49.4062L53.2344 55.5312C59.1719 55.7917 64.0938 57.224 68 59.8281C71.9583 62.3802 74.9271 65.6875 76.9062 69.75C78.8854 73.7604 79.875 78.1615 79.875 82.9531C79.875 93.7344 76.4115 101.938 69.4844 107.562C62.5573 113.188 53.1562 116 41.2812 116H7.0625ZM182.688 2.25V78.5781C182.688 87.224 180.786 94.4375 176.984 100.219C173.182 105.948 168.104 110.271 161.75 113.188C155.396 116.104 148.391 117.562 140.734 117.562C132.766 117.562 125.604 116.104 119.25 113.188C112.948 110.271 107.974 105.948 104.328 100.219C100.682 94.4375 98.8594 87.224 98.8594 78.5781V2.25H116.438V78.5781C116.438 84.2552 117.427 88.9167 119.406 92.5625C121.438 96.2083 124.276 98.9167 127.922 100.688C131.568 102.458 135.839 103.344 140.734 103.344C145.682 103.344 149.953 102.458 153.547 100.688C157.193 98.9167 160.005 96.2083 161.984 92.5625C163.964 88.9167 164.953 84.2552 164.953 78.5781V2.25H182.688ZM242.609 117.562C237.245 117.562 231.958 116.833 226.75 115.375C221.594 113.917 216.88 111.703 212.609 108.734C208.391 105.766 205.031 102.068 202.531 97.6406C200.031 93.2135 198.781 88.0573 198.781 82.1719H216.438C216.438 85.9219 217.115 89.151 218.469 91.8594C219.875 94.5156 221.776 96.7031 224.172 98.4219C226.62 100.141 229.406 101.417 232.531 102.25C235.708 103.031 239.068 103.422 242.609 103.422C247.505 103.422 251.594 102.745 254.875 101.391C258.208 99.9844 260.734 98.0573 262.453 95.6094C264.172 93.1094 265.031 90.2188 265.031 86.9375C265.031 83.6042 264.328 80.7917 262.922 78.5C261.568 76.1562 259.042 74.0208 255.344 72.0938C251.646 70.1146 246.359 68.1094 239.484 66.0781C233.964 64.4635 228.938 62.6146 224.406 60.5312C219.927 58.4479 216.021 56.0781 212.688 53.4219C209.354 50.7135 206.776 47.5885 204.953 44.0469C203.182 40.5052 202.297 36.4427 202.297 31.8594C202.297 25.8177 203.964 20.4531 207.297 15.7656C210.63 11.0781 215.266 7.40625 221.203 4.75C227.141 2.04167 234.042 0.6875 241.906 0.6875C250.448 0.6875 257.766 2.27604 263.859 5.45312C269.953 8.63021 274.589 12.849 277.766 18.1094C280.995 23.3698 282.609 29.099 282.609 35.2969H264.875C264.875 31.3385 264.042 27.8229 262.375 24.75C260.708 21.6771 258.156 19.2812 254.719 17.5625C251.333 15.7917 247.036 14.9062 241.828 14.9062C236.88 14.9062 232.792 15.6615 229.562 17.1719C226.333 18.6302 223.938 20.6354 222.375 23.1875C220.812 25.6875 220.031 28.5521 220.031 31.7812C220.031 34.75 220.917 37.3802 222.688 39.6719C224.51 41.9635 227.297 44.0469 231.047 45.9219C234.797 47.7448 239.562 49.5156 245.344 51.2344C253.833 53.6302 260.839 56.4427 266.359 59.6719C271.932 62.901 276.047 66.7292 278.703 71.1562C281.411 75.5833 282.766 80.7917 282.766 86.7812C282.766 93.0312 281.099 98.474 277.766 103.109C274.484 107.745 269.823 111.312 263.781 113.812C257.792 116.312 250.734 117.562 242.609 117.562ZM308.938 116H290.5L333.625 2.25H345.188L344.562 15.375L308.938 116ZM338.547 15.375L337.844 2.25H349.406L392.688 116H374.25L338.547 15.375ZM372.688 88.1875H309.719V73.8125H372.688V88.1875ZM495.734 116H478L424.406 32.0156V116H406.672V2.25H424.406L478.156 86.3906V2.25H495.734V116Z" fill="white"/>
</svg>
