<svg width="940" height="107" viewBox="0 0 940 107" fill="none" xmlns="http://www.w3.org/2000/svg">
<path d="M940.001 105.126H828.092V92.1632H940.001V105.126ZM836.547 105.126H801.652V1.42383H836.547V105.126Z" fill="white"/>
<path d="M757.842 1.42383V71.0096C757.842 78.8918 754.102 85.4681 746.621 90.7387C739.14 95.9618 729.148 99.9028 716.645 102.562C704.143 105.221 690.359 106.55 675.295 106.55C659.615 106.55 645.524 105.221 633.021 102.562C620.621 99.9028 610.834 95.9618 603.661 90.7387C596.487 85.4681 592.9 78.8918 592.9 71.0096V1.42383H627.487V71.0096C627.487 76.1852 629.435 80.4349 633.329 83.7587C637.326 87.0825 642.911 89.5516 650.084 91.166C657.258 92.7804 665.661 93.5876 675.295 93.5876C685.03 93.5876 693.434 92.7804 700.505 91.166C707.678 89.5516 713.212 87.0825 717.106 83.7587C721.001 80.4349 722.948 76.1852 722.948 71.0096V1.42383H757.842Z" fill="white"/>
<path d="M555.39 56.3381C555.39 66.7368 551.599 75.6873 544.015 83.1896C536.432 90.6918 525.774 96.461 512.041 100.497C498.411 104.533 482.424 106.551 464.08 106.551C446.146 106.551 430.211 104.533 416.273 100.497C402.439 96.461 391.576 90.6918 383.685 83.1896C375.896 75.6873 372.002 66.7368 372.002 56.3381V50.2841C372.002 39.8854 375.896 30.9349 383.685 23.4327C391.473 15.8829 402.285 10.0901 416.12 6.05404C429.955 2.01801 445.839 0 463.773 0C482.117 0 498.155 2.01801 511.888 6.05404C525.62 10.0901 536.278 15.8829 543.861 23.4327C551.547 30.9349 555.39 39.8854 555.39 50.2841V56.3381ZM520.65 50.1417C520.65 42.2121 518.395 35.5408 513.886 30.1277C509.377 24.6672 502.869 20.5362 494.363 17.7348C485.96 14.8858 475.763 13.4613 463.773 13.4613C452.09 13.4613 441.996 14.8858 433.49 17.7348C424.984 20.5362 418.426 24.6672 413.814 30.1277C409.202 35.5408 406.896 42.2121 406.896 50.1417V56.3381C406.896 64.2677 409.202 70.9865 413.814 76.4945C418.528 81.955 425.138 86.1098 433.644 88.9587C442.252 91.7602 452.398 93.1609 464.08 93.1609C476.071 93.1609 486.267 91.7602 494.671 88.9587C503.177 86.1098 509.633 81.955 514.04 76.4945C518.446 70.9865 520.65 64.2677 520.65 56.3381V50.1417Z" fill="white"/>
<path d="M345.872 105.126H227.661V92.1632H345.872V105.126ZM236.115 105.126H201.221V1.42383H236.115V105.126ZM330.192 58.0469H227.661V45.2266H330.192V58.0469ZM344.642 14.4578H227.661V1.42383H344.642V14.4578Z" fill="white"/>
<path d="M86.2372 106.551C75.6817 106.551 65.2799 105.886 55.0319 104.557C44.8864 103.227 35.6119 101.209 27.2085 98.5027C18.9076 95.7962 12.2976 92.425 7.37858 88.3889C2.45953 84.3529 0 79.6521 0 74.2866H34.7408C34.7408 77.7053 36.0731 80.6493 38.7375 83.1184C41.5045 85.54 45.245 87.5342 49.9591 89.1012C54.7757 90.6681 60.2584 91.8314 66.4072 92.5911C72.6585 93.3034 79.2685 93.6595 86.2372 93.6595C95.8703 93.6595 103.915 93.0422 110.371 91.8077C116.93 90.5256 121.9 88.7688 125.282 86.5371C128.664 84.2579 130.355 81.6227 130.355 78.6312C130.355 75.5924 128.971 73.0283 126.204 70.9391C123.54 68.8023 118.57 66.8556 111.294 65.0987C104.017 63.2944 93.6157 61.4663 80.0883 59.6145C69.2254 58.1425 59.3361 56.4569 50.4203 54.5576C41.607 52.6582 33.921 50.4978 27.3622 48.0762C20.8035 45.6071 15.7307 42.7581 12.1439 39.5293C8.65958 36.3005 6.91742 32.5968 6.91742 28.4184C6.91742 22.9104 10.1968 18.0197 16.7555 13.7462C23.3143 9.47279 32.435 6.12526 44.1178 3.70365C55.8005 1.23455 69.3791 0 84.8537 0C101.66 0 116.059 1.44822 128.049 4.34466C140.039 7.2411 149.16 11.0872 155.411 15.8829C161.765 20.6787 164.942 25.9018 164.942 31.5522H130.047C130.047 27.9435 128.408 24.7385 125.128 21.937C121.849 19.1355 116.828 16.9513 110.064 15.3844C103.403 13.77 94.948 12.9628 84.7 12.9628C74.9643 12.9628 66.9196 13.6513 60.5658 15.0283C54.2121 16.3578 49.498 18.1859 46.4236 20.5125C43.3492 22.7917 41.812 25.4032 41.812 28.3471C41.812 31.0536 43.5541 33.4515 47.0384 35.5408C50.6253 37.63 56.108 39.5293 63.4865 41.2387C70.8651 42.9006 80.2421 44.515 91.6174 46.0819C108.322 48.2661 122.105 50.8302 132.968 53.7741C143.934 56.718 152.029 60.208 157.256 64.244C162.585 68.28 165.249 73.0283 165.249 78.4888C165.249 84.1867 161.97 89.1487 155.411 93.3746C148.955 97.6006 139.783 100.853 127.895 103.132C116.11 105.411 102.224 106.551 86.2372 106.551Z" fill="white"/>
</svg>
